<?xml version="1.0" encoding="UTF-8"?>
<svg id="Layer_1" xmlns="http://www.w3.org/2000/svg" version="1.1" viewBox="0 0 464 464">
  <!-- Generator: Adobe Illustrator 30.5.1, SVG Export Plug-In . SVG Version: 2.1.4 Build 3)  -->
  
  <rect fill="#1c4220" width="464" height="464"/>
  <path fill="#ffffff" d="M375.4,125.3c4.79-3.06.87-11.7-.83-15.6.53,4.95-1.07,12.03.83,15.6Z"/>
  <path fill="#ffffff" d="M376.21,148.28c2.41-3.9,4.62-13.81,1.65-18.06-1.39,2.2-3.49,3.62-4.94,5.76,4.06,2.59.41,10.01,3.29,12.3Z"/>
  <path fill="#ffffff" d="M120.97,97.18c-5.07,2.34-13.62-2.92-15.55,3.27,4.32-.24,11.7.67,10.63,1.64,2.19-2.01,4.24-2.3,4.92-4.91Z"/>
  <path fill="#ffffff" d="M103.27,134.32c5.46-2.51,21.84-2.61,18.02-9.02-5.64,3.35-14.07,3.92-18.02,9.02Z"/>
  <path fill="#ffffff" d="M100.84,113c-3.71.66-10.34-1.56-11.48,1.64,7.08,1.23,21.18,2.67,22.98-4.11-9.87.86-11.7-6.37-19.7-7.38.06,6.01,5.48,6.55,8.21,9.85Z"/>
  <path fill="#ffffff" d="M228.04,389.75h-69.11c-18.06-26.59-36.04-59.4-31.89-99.47,9.07,34.02,48.48,64.23,78.69,85.36,8.02,5.59,14.87,10.34,22.31,14.11Z"/>
  <path fill="#ffffff" d="M340.12,376.43c-1.85,4.74-4.31,9.21-7.31,13.32h-40.96c.51-.29,1.05-.62,1.56-.96,6.37-3.89,12.4-8.29,18.06-13.15,12.01-10.63,19.15-22.01,25.37-36.13,2.1,7.48-6.05,15.55-4.92,22.18,3.7-1.22,4.68-5.12,6.6-8.23-.09,16.05-9.96,23.27-16.8,35.33,9.53-2.78,11.69-6.76,18.4-12.36h0Z"/>
  <path fill="#ffffff" d="M127.06,352.51c.73,2.34-.52,7.9-4.64,12.93-2.86,3.5-9.92,11.03-18.78,23.71,1.08-10.52,14.91-27.2,23.41-36.67l.02.03h0Z"/>
  <path fill="#ffffff" d="M116.06,220.5c-3.52-4.68-8.58-12.09-13.11-13.11,2.49,5.07,4.68,10.27,6.56,15.6,3.2.2,4.25-1.76,6.55-2.47v-.02ZM118.04,208.23c.5,10.77,5.77,20.99,4.9,30.33-5.46.57-5.46-4.29-8.16-6.55-1.88-.2-3.07.2-3.28,1.67-3.9-3.71-4.99-9.36-7.37-15.6-6.95-18.25-22.04-35.23-19.67-59.11,1.37-13.93,15.69-24.54,29.5-13.15.14,1.79-2.93.38-4.08.78-.89,3.12,2.01,2.34,1.62,4.95-7.28-2.61-20.83-6.51-22.94,3.31,6.42,7.25.05,27.31,8.18,32.82,1.69-10.22,2.03-25.57,11.49-30.38-2.56,7.02-2.79,12.78-7.4,16.43,6.67,5.17,8.88-6.51,14.75-7.38,2.73.27,1.3,4.73,1.65,7.38-12.03-.3-15.21,17.7-9.82,27.06,4.22,1.82,5.94,6.12,10.63,7.41v.03h0Z"/>
  <path fill="#ffffff" d="M122.06,336.36c1.64,14.24-14.82,23.26-19.93,36.25-.46-14.68,11.48-25.03,19.93-36.25Z"/>
  <path fill="#ffffff" d="M121.32,125.31c3.85,6.4-12.54,6.47-18.05,9.01,3.9-5.1,12.35-5.66,18.02-9.01h.03Z"/>
  <path fill="#ffffff" d="M120.97,97.18c-.68,2.58-2.72,2.89-4.92,4.91,1.06-.97-6.31-1.88-10.63-1.64,1.93-6.19,10.49-.9,15.55-3.27Z"/>
  <path fill="#ffffff" d="M118.04,321.46c.45,8.22-8.84,19.5-15.79,28.98,1.16-12.17,8.58-18.14,15.79-28.98Z"/>
  <path fill="#ffffff" d="M116.43,303.41c.35,7.49-5.64,15.69-9.01,22.16-.78-7.89,6.24-15.07,9.01-22.16Z"/>
  <path fill="#ffffff" d="M92.64,103.14c8.01,1.01,9.85,8.25,19.7,7.38-1.8,6.79-15.9,5.35-22.98,4.11,1.15-3.21,7.8-.98,11.48-1.64-2.72-3.3-8.14-3.85-8.2-9.85Z"/>
  <path fill="#ffffff" d="M152.58,309.11"/>
  <path fill="#ffffff" d="M359.28,222.26c-15.74,7.72-33.04,7.61-49.99,2,7.97,6.37,16.67,11.05,25.56,15.64,7.04,3.64,10.83,9.88,10.58,17.88-.18,5.77-.42,11.45-4.3,16.45l-2.72-1.95c-2.41,9.21-6.73,17.25-15.05,22.84-.13-2.86,1.33-5.13,2.55-7.67,2.33-4.81,4.03-10.09,2.91-15.38-1.01-4.74-4.81-7.55-8.39-10.43-5.55-4.47-8.09-12.96-9.83-10.17-1.6,2.57-4.84,4.95-8.15,5.31-4.23.45-6.53,5.55-11.58,7.17-7.97-.91-15.49-2.05-22.6-6.21,8.31-2.21,15.74-4.1,20.89-10.3,3.57-4.3,3.77-10.28,2.79-15.76l-5.75-32.24-6.62-19.14c-.55-2.32-2.1-4.32-3.96-4.47-2.74-.22-4.75,1.01-5.77,3.51-3.11,7.64-5.9,14.98-10.03,22.2-5.79,10.1-14.04,18.97-25.21,23.15-15.67,5.85-33.07,5.41-48.66.16-17.44-5.87-20.25-20.32-23.49-36.47l-2.81-14c-.34-1.68-2.91-4.77-4.88-4.38l-24.9,4.82c-1.72,3.12-3.17,6.19-3.55,10.4,3.54-1.15,5.8-3.66,8.23-6.49l3.86-4.49.85,9.82.84,6.77c-5.76,5.49-10.06,12.06-10.98,20.49l11.41-12.28c.35,8.03.52,14.51,2.29,21.85,2.58,10.77,7.42,20.73,11.99,30.9-3.79,5.34-13.26-.59-20.38-4.06.09,7.34,8.05,11.41,11.7,17.55-5.2-.22-7.25-3.73-10.86-6.12-2.43,9.77,6.54,15.35,10.62,24.42-4.37-1.99-6.39-3.91-10.59-6.37.29,4.31,1.9,7.85,4,11.27l6.99,11.33c-5,.34-7.3-7.93-10.91-6.24,11.3,30.11,49.82,59.99,77.84,79.58,7.86,5.51,17.02,12.82,26.3,16.59h35.37c5.84-2.52,8.44-6.97,3.07-14.11,0,0-23.5,2.93-43.28-5.06-7.22-2.91-14.18-5.48-20.78-9.51l-18.42-11.23c-12.99-7.92-35.5-27.42-42.91-40.71,6,3.02,12.24,8.61,17.35,12.56,10.46,8.11,21.66,16.68,33.84,21.82-.18-3.96-6.81-7.29-9.88-12.99,4.63,1.91,7.38,4.56,11.15,1.76,4.63,3.11,8.88,6.37,13.78,9.06,12.49,6.85,25.99,11.02,40.2,12.82,12.69,1.6,25.24-1.31,34.84-9.47,2.75-2.34,6.9-5.8,7.19-9.14l.78-8.93c3.73,2.32,5.25,5.55,6.69,9.53.58-.76,2.36-2.78,2.53-3.88l2.11-13.41c.16-.99,2.78-.51,3.39.16l6.05,6.64c1.21-4.73,1.08-7.12,1.22-11.93l4.74,3.44c14.53-21.58,21.63-37.71,25.66-63.22,1.39-8.79.83-16.49-.02-25.65l5.73,5.68c.52-4.03.16-7.72-.65-11.69h0ZM201.52,268.72c-4.64,2.79-6.3,7.4-5.14,12.58l2.51,11.3c-5.08-2.93-7.27-8.59-8.07-14.03-1.06-7.26,3.23-13.22,9.56-16.3,10.55-5.13,18.86-12.42,26.14-21.49,4.05-5.06,9.23-9.64,15.87-10.81-2.31,3.72-4.31,7.18-3.82,11.06.45,3.65,2.8,7.4,6.44,9.44l4.94-3.14c4.44-2.82,17.71.95,16.09,7.4l-12.44-2.89c-6.08-1.41-8.95,4.35-11.98,2.57-6.11-3.57-7.15-8.42-8.29-15.46l-9.79,11.59c-6.29,7.45-13.72,13.21-22.01,18.18ZM261.53,312.78l-9.78-5.08c-2.79-1.45-4.51-2.18-6.92-4.64,2.08-.51,3-.23,4.82.25,8.74,2.31,17.84,2.01,26.92,1.33,6.26-.48,11.13-2.96,17.02-6.02-.59,12.12-21.26,17.53-32.07,14.16h0ZM317.9,281.58c-.98.29-2.67-.97-3.68-2.41-29.16,20.75-70.19,16.09-102.45,2.61l-1.83,7.02c-3.1-2.5-4.95-6.37-3.66-10.3,1.44-4.38,5.87-7.02,10.99-6.77l-3.48,5.63c13.11,5.87,27.01,8.04,41.25,9.7,18.83,2.19,41.33-.47,56.67-11.95l-1.54-4.1c2.84-1.47,5.55.44,7.19,2.23,2.03,2.23,2.6,6.12.52,8.35h.02Z"/>
  <path fill="#ffffff" d="M364.36,122.15l-2-.02c-.83,6-5.09,9.93-10.99,10.56l-17.03,1.83c-9.74,1.05-21.71,11.94-33.13,12.69l-1.7-7.83c-.13-.61-1.32-1.89-1.85-1.79s-1.79.9-2.04,1.42l-5.23,10.84c-11.5,6.48-33.73,2.66-29.51-3.67,2.29-3.44,9.97-5.13,12.37-11.63.32-.86-2.24-1.31-2.89-.89l-4.8,3.02c-.49-1.12-1.09-2.59-1.52-2.31l-1.65,1.07c-4.95,3.2-11.55,3.18-17.2.57-16-7.38-33.56-17.23-51.05-12.98-6.26,1.52-18.69,6.74-18.33,12.34l9.59-3.87c1.39-.56,4.7-.23,5.48.42l-.92,2.96c-.88,2.82,24.02-4.76,32.1,7.14-23.23-2.79-45.73-1.55-68.32,2.82-2.11.41-5.01-.1-7.29-.27,4.1-11.52,6.48-22.69,5.25-34.84-4.63,2.29-6.05,7.13-11.91,6.76-.41-6.43,5.37-7.76,8.14-10.95.23-4.58.77-7.34,2.32-11.65.21-.62.41-1.26.67-1.89h208.91c.48.59.92,1.2,1.3,1.86,1.2,2.08,1.86,4.44,1.93,6.85-2.89-.38-4.37-2.18-8.19-1.69,4.03,7.8,10.52,10.45,9.49,23.14h0Z"/>
  <path fill="#d8b56a" d="M309.43,217.62c-14.57-6.76-20.81-24.27-25.36-39.01-.76-2.47-1.92-5.25-3.99-6.82-2.49-1.87-6.06-1.88-8.95-.91-2.71.91-4.85,3.51-6.12,6.57-2.65,6.41-4.85,12.56-8.22,18.64-4.88,8.81-11.18,17.2-20.6,21.64-16.1,7.59-34.97,7.12-51.21.63-7.53-3.01-11.98-8.61-14.3-16.15-2.82-9.17-4.35-18.5-6.11-27.98-.82-4.4-2.86-7.97-7.24-9.74l-.84-15.48c38.86-7.55,70.29-4.31,107.71,7.02,7.58,2.29,15.04,2.23,22.48.02,34.27-10.15,65.39-12.33,100.67-4.63l-2.4,13.97c-3.81,2.47-6.3,5.62-7.48,10.07-3.92,14.85-7.37,34.76-20.34,41.33-14.86,7.54-32.58,7.83-47.7.82h0ZM233.97,212.59c13.25-6.51,20.05-25.34,21.54-39.82.72-6.94-3-12.29-9.39-14.96-16.7-6.95-42.72-8.37-59.81-3.26-7.04,2.11-11.59,7.37-12.49,14.71-1.59,12.86.16,36.9,10.91,42.52,15.16,7.92,33.57,8.5,49.24.8h0ZM348.15,215c7.53-2.09,12.78-6.69,15.76-13.72,5.01-11.83,9.9-34.22,1.45-42-3.09-2.85-7.51-4.38-11.75-5.09-16.16-2.68-42.2-1.83-55.03,7.09-9.72,6.76-4.3,31.61,5.63,44.74,3.52,4.65,8.95,7.51,14.34,9.19,9.76,3.05,19.54,2.57,29.59-.22ZM173.63,157.36c-3.68-3.5-9.85-3.43-12.55.27,3.82,2.8,9.53,3.13,12.55-.27ZM381.99,159.1c-1.83-3.1-9.08-3-10.45.23,1.43,3.14,9.09,2.95,10.45-.23Z"/>
  <path fill="#d8b56a" d="M153,164.17l-29.37,5.78c-3.03-6.16-5.8-11.53-9.67-17.62,12.67-2.32,25.55-3.24,38.38-3.07l.67,14.91Z"/>
  <path fill="#ffffff" d="M299.07,228.16c7.08.5,8.56,13.79,1,14.75.47-5.58-.47-9.98-1-14.75Z"/>
  <rect fill="none" x="51" y="91.99" width="362" height="298.03"/>
</svg>