<?xml version="1.0" encoding="UTF-8"?>
<svg id="Layer_1" xmlns="http://www.w3.org/2000/svg" version="1.1" viewBox="0 0 464 382">
  <!-- Generator: Adobe Illustrator 30.5.1, SVG Export Plug-In . SVG Version: 2.1.4 Build 3)  -->
  <path fill="#ffffff" d="M415.8,42.7c6.14-3.92,1.12-15-1.07-20,.68,6.35-1.37,15.42,1.07,20Z"/>
  <path fill="#ffffff" d="M416.84,72.16c3.09-5,5.92-17.7,2.11-23.15-1.78,2.82-4.47,4.64-6.33,7.38,5.21,3.32.52,12.83,4.22,15.77Z"/>
  <path fill="#ffffff" d="M89.68,6.66c-6.5,3-17.46-3.74-19.93,4.19,5.54-.31,15,.86,13.63,2.1,2.81-2.58,5.43-2.95,6.3-6.29Z"/>
  <path fill="#ffffff" d="M67,54.26c7-3.22,28-3.35,23.1-11.56-7.23,4.3-18.04,5.02-23.1,11.56Z"/>
  <path fill="#ffffff" d="M63.88,26.93c-4.76.84-13.25-2-14.72,2.1,9.08,1.58,27.15,3.42,29.45-5.27-12.65,1.1-15-8.16-25.25-9.46.08,7.7,7.03,8.4,10.52,12.63Z"/>
  <path fill="#ffffff" d="M226.93,381.66h-88.58c-23.15-34.08-46.2-76.14-40.87-127.5,11.63,43.61,62.14,82.33,100.86,109.41,10.28,7.16,19.06,13.25,28.59,18.09Z"/>
  <path fill="#ffffff" d="M370.59,364.59c-2.37,6.07-5.52,11.81-9.37,17.07h-52.5c.65-.37,1.35-.8,2-1.23,8.16-4.98,15.9-10.62,23.15-16.86,15.4-13.62,24.55-28.21,32.52-46.31,2.69,9.59-7.75,19.93-6.3,28.43,4.74-1.56,6-6.56,8.46-10.55-.11,20.57-12.77,29.83-21.54,45.29,12.22-3.56,14.99-8.67,23.58-15.84Z"/>
  <path fill="#ffffff" d="M97.49,333.93c.94,3-.67,10.12-5.95,16.57-3.66,4.49-12.71,14.14-24.07,30.39,1.38-13.48,19.11-34.87,30-47l.02.04Z"/>
  <path fill="#ffffff" d="M83.39,164.72c-4.51-6-11-15.5-16.8-16.81,3.19,6.5,6,13.17,8.41,20,4.1.25,5.45-2.25,8.39-3.17v-.02ZM85.93,149c.64,13.81,7.39,26.9,6.28,38.88-7,.73-7-5.5-10.46-8.4-2.41-.25-3.93.26-4.2,2.14-5-4.75-6.39-12-9.45-20-8.91-23.39-28.25-45.16-25.21-75.76,1.76-17.86,20.11-31.45,37.81-16.86.18,2.3-3.75.49-5.23,1-1.14,4,2.57,3,2.08,6.34-9.33-3.34-26.7-8.34-29.41,4.24,8.23,9.29.07,35,10.49,42.07,2.16-13.1,2.6-32.78,14.73-38.94-3.28,9-3.57,16.38-9.48,21.06,8.55,6.63,11.38-8.34,18.9-9.46,3.5.35,1.66,6.06,2.12,9.46-15.42-.38-19.49,22.69-12.59,34.69,5.41,2.33,7.62,7.84,13.62,9.5v.04Z"/>
  <path fill="#ffffff" d="M91.08,313.23c2.1,18.25-19,29.82-25.54,46.47-.59-18.81,14.72-32.08,25.54-46.47Z"/>
  <path fill="#ffffff" d="M90.14,42.71c4.93,8.2-16.07,8.29-23.14,11.55,5-6.54,15.83-7.25,23.1-11.55h.04Z"/>
  <path fill="#ffffff" d="M89.68,6.66c-.87,3.31-3.49,3.71-6.3,6.29,1.36-1.24-8.09-2.41-13.63-2.1,2.47-7.93,13.44-1.16,19.93-4.19Z"/>
  <path fill="#ffffff" d="M85.93,294.13c.58,10.53-11.33,25-20.24,37.14,1.49-15.6,11-23.25,20.24-37.14Z"/>
  <path fill="#ffffff" d="M83.86,271c.45,9.6-7.23,20.11-11.55,28.41-1-10.11,8-19.31,11.55-28.41Z"/>
  <path fill="#ffffff" d="M53.37,14.3c10.27,1.3,12.63,10.57,25.25,9.46-2.31,8.7-20.38,6.86-29.46,5.27,1.48-4.12,10-1.26,14.72-2.1-3.49-4.23-10.43-4.93-10.51-12.63Z"/>
  <path fill="#ffffff" d="M130.2,278.3"/>
  <path fill="#ffffff" d="M395.14,166.98c-20.18,9.89-42.35,9.76-64.07,2.56,10.21,8.16,21.37,14.16,32.76,20.05,9.02,4.67,13.88,12.67,13.56,22.92-.23,7.39-.54,14.67-5.51,21.09l-3.48-2.5c-3.09,11.81-8.62,22.11-19.29,29.27-.17-3.67,1.7-6.58,3.27-9.83,2.99-6.17,5.17-12.93,3.73-19.71-1.29-6.08-6.17-9.68-10.76-13.37-7.12-5.73-10.37-16.61-12.6-13.03-2.05,3.29-6.2,6.35-10.45,6.81-5.42.58-8.37,7.12-14.84,9.19-10.22-1.16-19.85-2.63-28.97-7.96,10.65-2.83,20.18-5.25,26.78-13.2,4.58-5.51,4.83-13.18,3.58-20.2l-7.37-41.32-8.49-24.53c-.7-2.97-2.69-5.54-5.08-5.73-3.51-.28-6.09,1.29-7.4,4.5-3.99,9.79-7.56,19.2-12.86,28.45-7.42,12.94-17.99,24.32-32.31,29.67-20.08,7.5-42.39,6.93-62.37.2-22.35-7.53-25.96-26.05-30.11-46.75l-3.6-17.95c-.43-2.15-3.73-6.11-6.25-5.62l-31.91,6.18c-2.21,4-4.06,7.93-4.55,13.33,4.54-1.48,7.43-4.69,10.55-8.32l4.95-5.75,1.09,12.59,1.08,8.68c-7.38,7.04-12.89,15.46-14.07,26.26l14.62-15.74c.45,10.29.67,18.6,2.93,28.01,3.31,13.8,9.51,26.57,15.37,39.61-4.86,6.84-16.99-.76-26.12-5.2.12,9.41,10.32,14.63,15,22.49-6.67-.28-9.29-4.78-13.92-7.84-3.11,12.52,8.38,19.68,13.61,31.3-5.6-2.55-8.19-5.01-13.57-8.16.37,5.53,2.43,10.06,5.13,14.44l8.96,14.52c-6.41.43-9.36-10.16-13.98-8,14.48,38.6,63.86,76.89,99.77,102,10.07,7.06,21.81,16.43,33.71,21.27h45.34c7.49-3.23,10.82-8.93,3.93-18.09,0,0-30.12,3.75-55.48-6.49-9.25-3.73-18.18-7.03-26.64-12.19l-23.61-14.39c-16.65-10.15-45.5-35.15-55-52.18,7.69,3.87,15.69,11.03,22.24,16.1,13.41,10.39,27.76,21.38,43.37,27.97-.23-5.08-8.73-9.34-12.67-16.65,5.94,2.45,9.46,5.84,14.29,2.25,5.94,3.99,11.38,8.17,17.66,11.61,16.01,8.78,33.31,14.13,51.53,16.43,16.27,2.05,32.35-1.68,44.66-12.14,3.53-3,8.85-7.44,9.22-11.72l1-11.45c4.78,2.98,6.73,7.11,8.58,12.21.74-.97,3.02-3.56,3.24-4.97l2.7-17.19c.2-1.27,3.56-.65,4.34.2l7.75,8.51c1.55-6.06,1.38-9.13,1.56-15.29l6.07,4.41c18.62-27.66,27.73-48.34,32.89-81.03,1.78-11.27,1.07-21.14-.02-32.88l7.35,7.28c.67-5.17.2-9.89-.83-14.99ZM192.93,226.53c-5.95,3.57-8.07,9.49-6.59,16.12l3.22,14.49c-6.51-3.75-9.32-11.01-10.34-17.98-1.36-9.3,4.14-16.95,12.25-20.89,13.52-6.57,24.18-15.92,33.51-27.55,5.19-6.48,11.83-12.36,20.34-13.85-2.96,4.77-5.52,9.2-4.9,14.18.58,4.68,3.59,9.48,8.25,12.1l6.33-4.03c5.69-3.62,22.7,1.22,20.62,9.48l-15.95-3.7c-7.79-1.81-11.47,5.57-15.36,3.29-7.83-4.58-9.17-10.79-10.62-19.82l-12.55,14.86c-8.06,9.55-17.58,16.93-28.21,23.3ZM269.85,283.01l-12.53-6.51c-3.58-1.86-5.78-2.8-8.87-5.95,2.67-.66,3.85-.29,6.18.32,11.2,2.96,22.87,2.58,34.51,1.7,8.02-.61,14.27-3.8,21.82-7.71-.76,15.54-27.25,22.47-41.11,18.15ZM342.11,243.02c-1.25.37-3.42-1.24-4.72-3.09-37.37,26.6-89.97,20.63-131.32,3.34l-2.34,9c-3.97-3.21-6.35-8.16-4.69-13.2,1.85-5.61,7.52-9,14.09-8.68l-4.46,7.22c16.81,7.52,34.62,10.31,52.87,12.43,24.14,2.81,52.97-.6,72.64-15.32l-1.97-5.26c3.64-1.89,7.12.56,9.21,2.86,2.6,2.86,3.33,7.85.67,10.7Z"/>
  <path fill="#ffffff" d="M401.65,38.66l-2.56-.03c-1.06,7.69-6.52,12.73-14.09,13.54l-21.83,2.34c-12.49,1.34-27.83,15.3-42.46,16.26l-2.18-10.04c-.17-.78-1.69-2.42-2.37-2.29s-2.29,1.16-2.61,1.82l-6.7,13.9c-14.74,8.31-43.23,3.41-37.82-4.7,2.94-4.41,12.78-6.58,15.85-14.91.41-1.1-2.87-1.68-3.71-1.14l-6.15,3.87c-.63-1.44-1.4-3.32-1.95-2.96l-2.12,1.37c-6.34,4.1-14.8,4.07-22.04.73-20.51-9.46-43.01-22.09-65.44-16.64-8.03,1.95-23.96,8.64-23.5,15.82l12.29-4.96c1.78-.72,6.03-.29,7.03.54l-1.18,3.79c-1.13,3.61,30.79-6.1,41.15,9.15-29.77-3.58-58.61-1.99-87.57,3.61-2.71.52-6.42-.13-9.35-.35,5.25-14.76,8.31-29.08,6.73-44.66-5.93,2.93-7.75,9.14-15.26,8.66-.52-8.24,6.88-9.95,10.43-14.04.29-5.87.99-9.41,2.98-14.93.27-.8.53-1.61.86-2.42h267.78c.62.75,1.18,1.54,1.67,2.38,1.54,2.67,2.39,5.69,2.47,8.78-3.71-.49-5.6-2.8-10.5-2.16,5.17,10,13.49,13.39,12.16,29.66Z"/>
  <path fill="#d8b56a" d="M331.25,161.03c-18.68-8.66-26.68-31.11-32.51-50-.97-3.16-2.46-6.73-5.12-8.74-3.19-2.4-7.77-2.41-11.47-1.16-3.47,1.17-6.22,4.5-7.84,8.42-3.4,8.21-6.22,16.1-10.54,23.89-6.26,11.29-14.33,22.04-26.41,27.74-20.64,9.73-44.82,9.13-65.64.81-9.65-3.86-15.36-11.04-18.33-20.7-3.61-11.75-5.57-23.71-7.83-35.86-1.05-5.64-3.67-10.21-9.28-12.49l-1.08-19.84c49.81-9.68,90.1-5.52,138.06,9,9.72,2.94,19.28,2.86,28.82.03,43.93-13.01,83.81-15.81,129.04-5.94l-3.08,17.91c-4.88,3.17-8.08,7.2-9.59,12.91-5.03,19.04-9.45,44.55-26.07,52.97-19.05,9.66-41.76,10.03-61.14,1.05ZM234.53,154.59c16.98-8.34,25.7-32.48,27.61-51.04.92-8.9-3.84-15.75-12.04-19.17-21.4-8.91-54.76-10.73-76.66-4.18-9.02,2.7-14.85,9.45-16.01,18.85-2.04,16.48.2,47.3,13.98,54.5,19.43,10.15,43.03,10.9,63.12,1.03ZM380.88,157.68c9.65-2.68,16.38-8.57,20.2-17.58,6.42-15.16,12.69-43.86,1.86-53.84-3.96-3.65-9.62-5.61-15.06-6.52-20.71-3.44-54.09-2.35-70.53,9.09-12.46,8.67-5.51,40.52,7.22,57.35,4.51,5.96,11.47,9.62,18.38,11.78,12.51,3.91,25.05,3.3,37.93-.28ZM157.18,83.79c-4.72-4.49-12.63-4.4-16.09.34,4.9,3.59,12.22,4.01,16.09-.34ZM424.25,86.03c-2.35-3.97-11.64-3.84-13.4.3,1.83,4.03,11.65,3.78,13.4-.3Z"/>
  <path fill="#d8b56a" d="M130.74,92.52l-37.65,7.41c-3.88-7.9-7.43-14.78-12.4-22.59,16.24-2.98,32.75-4.15,49.19-3.93l.86,19.11Z"/>
  <path fill="#ffffff" d="M317.97,174.54c9.07.64,10.97,17.67,1.28,18.91.6-7.15-.6-12.79-1.28-18.91Z"/>
  <rect fill="none" width="464" height="382"/>
</svg>