<?xml version="1.0" encoding="UTF-8"?>
<svg id="Layer_1" xmlns="http://www.w3.org/2000/svg" version="1.1" xmlns:v="https://vecta.io/nano" viewBox="0 0 783.42 198.47">
  <!-- Generator: Adobe Illustrator 30.5.1, SVG Export Plug-In . SVG Version: 2.1.4 Build 3)  -->
  
  <path fill="#ffffff" d="M538.27,54.93c-8.87-6.38-18.85-9.1-33.4-9.1h-50.76v7.64h10.84v81.13h-10.84v7.67h50.16c14.51,0,25.17-2.75,33.55-8.66,13.37-9.52,20.44-23.09,20.44-39.25s-6.92-30.09-19.99-39.43ZM527.09,100.07c0,15.4-.82,23.28-5.7,29.24-3.7,4.49-8.62,5.29-17.58,5.29h-10.88V53.47h10.88c10.6,0,15.64,1.12,19.38,8.07,3.52,6.58,3.9,15.1,3.9,31.64v6.89Z"/>
  <path fill="#ffffff" d="M627.04,134.8c-2.51-.03-3.99-3.76-3.99-7.36v-30.12c0-7.09-.34-11.6-7-15-4.33-2.24-11.18-3.47-19.31-3.47-18.74,0-28.38,7.17-28.38,16.55,0,6,3.51,9.63,9.39,9.63,6.57,0,10.5-3.49,10.5-9.34-.04-2.12-.7-4.18-1.88-5.93-.23-.35-.42-.72-.57-1.11,0-1.1,3.13-2.86,7-2.86,7.93,0,8.64,1.71,8.64,6.62v12.79c-23.54.35-38.11,8.89-38.11,22.4,0,10.33,6.34,16.25,17.38,16.25,9.57,0,16.29-2.69,22.21-8.92,1.28,2.72,3.32,5.01,5.88,6.59s5.51,2.39,8.52,2.33c10.71,0,11.23-7.37,11.23-7.44l.11-1.61h-1.62ZM601.41,123.37c0,5.46-3.4,9.13-8.46,9.13-4.31,0-6.81-1.69-6.81-10.35,0-7.4,3.78-9.9,15-9.9h.27v11.12Z"/>
  <path fill="#ffffff" d="M342.96,53.42h6.12v-7.59h-36.24l-17.19,48.87-16.18-48.87h-42.71v7.59h10.78v75.27c0,2.69-.76,5.91-4.4,5.91h-6.38v7.66h31.44v-7.66h-6.88c-4.34,0-5.59-1.43-5.59-6.36V61.82l26,80.45h7.32l26.75-80.73v73.07h-12.27v7.65h45.55v-7.66h-6.12V53.42h0Z"/>
  <path fill="#ffffff" d="M381.9,155.8l6.38-14.86-27.06-53.14h-6.92v-7.6h38.06v7.6h-5.46l12.36,26.52,9.85-22.6c.5-.82.78-1.77.79-2.73,0-.88-1.39-1.19-2.57-1.19h-6.16v-7.6h25.53v7.64h-5.59c-1.34,0-2.55.27-3.92,3.59l-28.73,67.25c-4.88,11.31-12,16.5-18.57,16.5s-10.32-3.69-10.32-9.63c0-1.25.26-2.49.75-3.64s1.2-2.19,2.1-3.06c1.81-1.76,4.26-2.72,6.78-2.66,1.44-.04,2.86.26,4.16.89,1.29.62,2.42,1.55,3.28,2.69.39.43.92,1,1.13,1,.03,0,1.31,1.37,4.13-4.97h0Z"/>
  <path fill="#ffffff" d="M760.66,97.81l-3.74-.48c-10.57-1.31-14-2-14-5.25s4.58-6.59,12.24-6.59,12.71,2.24,15.49,10.73l.34,1h6.59l-.53-17.68h-5.06l-2.82,2.42c-4.44-2.07-9.27-3.16-14.17-3.18-13.86,0-22.82,8.87-22.82,22.59s8.92,17.85,22.31,19.83c2.12.32,4.09.57,5.92.79,9.59,1.2,11.83,1.88,11.83,5.84,0,4.56-4.41,9.17-12.85,9.17-10.08,0-16.86-4.14-20.14-16.37l-.3-1.12h-6.64l.19,22.77h5.64l3.77-2.93c4.48,3,10.36,4.57,17,4.57,15.12,0,24.51-9.21,24.51-24,.06-13.86-6.33-20.03-22.76-22.11h0Z"/>
  <path fill="#ffffff" d="M733.38,73.79c1-6.28-2.52-10.7-9.52-11.13-2.36-.14-5.65.28-7.53,2.08-.68.59-1.23,1.3-1.62,2.11-.4.81-.62,1.68-.67,2.58-.07.89.05,1.79.33,2.64s.73,1.63,1.32,2.3c.53.58,1.17,1.06,1.89,1.39s1.49.52,2.28.54c2.8.09,5-1,5.69-2,.46,4.63-7.2,5.85-7.2,5.85v7.64s12.23-.21,15.03-14h0Z"/>
  <path fill="#ffffff" d="M707.82,134.6v-32.76c0-13.85-1.31-22.85-18.92-22.85-9.68,0-16.91,3.62-22.51,11.33v-10.14h-30c-.34,0,.34,0,0,0v7.61h6.23v46.8h-6.21v7.65h36.34v-7.65h-6.24v-26.43c0-11,7.19-19.85,13.14-19.85,2.83,0,4.71,1.1,4.71,6.47v39.82h-6.12v7.65h35.78v-7.65h-6.2Z"/>
  <path fill="#ffffff" d="M194.08,22.2c3.19-2.04.58-7.8-.56-10.4.35,3.3-.71,8.02.56,10.4Z"/>
  <path fill="#ffffff" d="M194.62,37.52c1.61-2.6,3.08-9.2,1.1-12.04-.93,1.47-2.32,2.41-3.29,3.84,2.71,1.73.27,6.67,2.19,8.2h0Z"/>
  <path fill="#ffffff" d="M24.49,3.45c-3.38,1.56-9.08-1.94-10.36,2.18,2.88-.16,7.8.45,7.09,1.09,1.46-1.34,2.82-1.53,3.28-3.27h-.01Z"/>
  <path fill="#ffffff" d="M12.7,28.21c3.64-1.67,14.56-1.74,12.01-6.01-3.76,2.24-9.38,2.61-12.01,6.01Z"/>
  <path fill="#ffffff" d="M11.08,13.99c-2.48.44-6.89-1.04-7.65,1.09,4.72.82,14.12,1.78,15.31-2.74-6.58.57-7.8-4.24-13.13-4.92.04,4,3.66,4.37,5.47,6.57Z"/>
  <path fill="#ffffff" d="M95.87,198.46h-46.06c-12.04-17.72-24.03-39.59-21.25-66.3,6.05,22.68,32.31,42.81,52.45,56.9,5.35,3.72,9.91,6.89,14.87,9.41h-.01Z"/>
  <path fill="#ffffff" d="M170.57,189.59c-1.23,3.16-2.87,6.14-4.87,8.88h-27.3c.34-.19.7-.42,1.04-.64,4.24-2.59,8.27-5.52,12.04-8.77,8.01-7.08,12.77-14.67,16.91-24.08,1.4,4.99-4.03,10.36-3.28,14.78,2.46-.81,3.12-3.41,4.4-5.49-.06,10.7-6.64,15.51-11.2,23.55,6.35-1.85,7.8-4.51,12.26-8.24h0Z"/>
  <path fill="#ffffff" d="M28.55,173.64c.49,1.56-.35,5.26-3.09,8.62-1.9,2.33-6.61,7.35-12.52,15.8.72-7.01,9.94-18.13,15.6-24.44v.02h.01Z"/>
  <path fill="#ffffff" d="M21.22,85.65c-2.35-3.12-5.72-8.06-8.74-8.74,1.66,3.38,3.12,6.85,4.37,10.4,2.13.13,2.83-1.17,4.36-1.65h.01ZM22.54,77.47c.33,7.18,3.84,13.99,3.27,20.22-3.64.38-3.64-2.86-5.44-4.37-1.25-.13-2.04.14-2.18,1.11-2.6-2.47-3.32-6.24-4.91-10.4C8.65,71.87-1.41,60.55.17,44.63c.92-9.29,10.46-16.35,19.66-8.77.09,1.2-1.95.25-2.72.52-.59,2.08,1.34,1.56,1.08,3.3-4.85-1.74-13.88-4.34-15.29,2.2,4.28,4.83.04,18.2,5.46,21.88,1.12-6.81,1.35-17.05,7.66-20.25-1.71,4.68-1.86,8.52-4.93,10.95,4.45,3.45,5.92-4.34,9.83-4.92,1.82.18.86,3.15,1.1,4.92-8.02-.2-10.14,11.8-6.55,18.04,2.81,1.21,3.96,4.08,7.08,4.94v.02h0Z"/>
  <path fill="#ffffff" d="M25.22,162.88c1.09,9.49-9.88,15.51-13.28,24.17-.31-9.78,7.65-16.68,13.28-24.17Z"/>
  <path fill="#ffffff" d="M24.73,22.2c2.56,4.26-8.36,4.31-12.03,6.01,2.6-3.4,8.23-3.77,12.01-6.01h.02Z"/>
  <path fill="#ffffff" d="M24.49,3.45c-.45,1.72-1.81,1.93-3.28,3.27.71-.64-4.21-1.25-7.09-1.09,1.28-4.12,6.99-.6,10.36-2.18h.01Z"/>
  <path fill="#ffffff" d="M22.54,152.95c.3,5.48-5.89,13-10.53,19.31.77-8.11,5.72-12.09,10.53-19.31Z"/>
  <path fill="#ffffff" d="M21.47,140.92c.23,4.99-3.76,10.46-6.01,14.77-.52-5.26,4.16-10.04,6.01-14.77Z"/>
  <path fill="#ffffff" d="M5.61,7.43c5.34.68,6.57,5.5,13.13,4.92-1.2,4.52-10.6,3.57-15.32,2.74.77-2.14,5.2-.66,7.65-1.09-1.81-2.2-5.42-2.56-5.47-6.57h.01Z"/>
  <path fill="#ffffff" d="M45.56,144.71"/>
  <path fill="#ffffff" d="M183.34,86.82c-10.49,5.14-22.02,5.08-33.32,1.33,5.31,4.24,11.11,7.36,17.04,10.43,4.69,2.43,7.22,6.59,7.05,11.92-.12,3.84-.28,7.63-2.87,10.97l-1.81-1.3c-1.61,6.14-4.48,11.5-10.03,15.22-.09-1.91.88-3.42,1.7-5.11,1.56-3.21,2.69-6.73,1.94-10.25-.67-3.16-3.21-5.03-5.6-6.95-3.7-2.98-5.39-8.64-6.55-6.78-1.07,1.71-3.22,3.3-5.44,3.54-2.82.3-4.36,3.7-7.72,4.78-5.32-.6-10.32-1.37-15.06-4.14,5.54-1.47,10.49-2.73,13.92-6.86,2.38-2.87,2.51-6.86,1.86-10.5l-3.83-21.49-4.41-12.76c-.36-1.54-1.4-2.88-2.64-2.98-1.83-.15-3.17.67-3.85,2.34-2.08,5.09-3.93,9.99-6.69,14.79-3.86,6.73-9.36,12.65-16.8,15.43-10.44,3.9-22.04,3.6-32.43.1-11.62-3.92-13.5-13.54-15.66-24.31l-1.87-9.33c-.22-1.12-1.94-3.18-3.25-2.92l-16.59,3.21c-1.15,2.08-2.11,4.13-2.37,6.93,2.36-.77,3.86-2.44,5.48-4.33l2.57-2.99.56,6.55.56,4.51c-3.84,3.66-6.7,8.04-7.32,13.65l7.6-8.18c.23,5.35.35,9.67,1.52,14.57,1.72,7.18,4.95,13.82,8,20.6-2.53,3.55-8.83-.4-13.58-2.7.06,4.89,5.37,7.61,7.8,11.7-3.47-.15-4.83-2.49-7.24-4.08-1.62,6.51,4.36,10.23,7.08,16.28-2.91-1.32-4.26-2.61-7.06-4.25.19,2.87,1.26,5.23,2.67,7.51l4.66,7.55c-3.33.22-4.87-5.28-7.27-4.16,7.53,20.07,33.21,39.98,51.88,53.04,5.24,3.67,11.34,8.54,17.53,11.06h23.58c3.89-1.68,5.63-4.64,2.04-9.41,0,0-15.67,1.95-28.85-3.37-4.81-1.94-9.45-3.65-13.85-6.34l-12.28-7.48c-8.66-5.28-23.66-18.28-28.6-27.13,4,2.01,8.16,5.73,11.57,8.37,6.97,5.4,14.43,11.12,22.55,14.54-.12-2.64-4.54-4.86-6.59-8.66,3.09,1.28,4.92,3.04,7.43,1.17,3.09,2.08,5.92,4.25,9.18,6.04,8.33,4.57,17.32,7.35,26.8,8.55,8.46,1.07,16.82-.88,23.23-6.31,1.83-1.56,4.6-3.87,4.79-6.1l.52-5.96c2.49,1.55,3.5,3.7,4.46,6.35.39-.5,1.57-1.85,1.69-2.59l1.4-8.94c.1-.66,1.85-.34,2.26.11l4.03,4.42c.8-3.15.72-4.75.81-7.95l3.16,2.29c9.68-14.38,14.42-25.14,17.1-42.14.92-5.86.56-10.99,0-17.1l3.82,3.79c.35-2.69.1-5.14-.43-7.79h.02,0ZM78.19,117.79c-3.1,1.86-4.2,4.94-3.43,8.38l1.68,7.53c-3.39-1.95-4.85-5.72-5.38-9.35-.71-4.84,2.15-8.81,6.37-10.86,7.03-3.42,12.58-8.28,17.42-14.33,2.7-3.37,6.15-6.43,10.58-7.2-1.54,2.48-2.87,4.78-2.55,7.37.3,2.44,1.87,4.93,4.29,6.29l3.29-2.1c2.96-1.88,11.81.63,10.72,4.93l-8.29-1.92c-4.05-.94-5.96,2.9-7.99,1.71-4.07-2.38-4.77-5.61-5.52-10.31l-6.52,7.73c-4.19,4.96-9.14,8.81-14.67,12.12h0ZM118.19,147.16l-6.52-3.39c-1.86-.97-3.01-1.46-4.61-3.09,1.39-.34,2-.15,3.21.17,5.82,1.54,11.89,1.34,17.95.89,4.17-.31,7.42-1.97,11.34-4.01-.4,8.08-14.17,11.69-21.38,9.44h.01ZM155.76,126.37c-.65.19-1.78-.64-2.45-1.6-19.43,13.83-46.79,10.73-68.29,1.73l-1.21,4.68c-2.06-1.67-3.3-4.24-2.44-6.86.96-2.92,3.91-4.68,7.33-4.51l-2.32,3.76c8.74,3.91,18,5.36,27.5,6.47,12.55,1.46,27.55-.31,37.78-7.97l-1.02-2.74c1.89-.98,3.7.29,4.79,1.49,1.35,1.48,1.73,4.08.35,5.56h-.02Z"/>
  <path fill="#ffffff" d="M186.72,20.09l-1.33-.02c-.55,4-3.39,6.62-7.33,7.04l-11.35,1.22c-6.49.7-14.47,7.96-22.08,8.46l-1.13-5.22c-.09-.41-.88-1.26-1.23-1.19s-1.19.6-1.36.95l-3.48,7.23c-7.66,4.32-22.48,1.78-19.67-2.44,1.53-2.29,6.65-3.42,8.24-7.75.21-.57-1.49-.87-1.93-.59l-3.2,2.01c-.33-.75-.73-1.73-1.02-1.54l-1.1.71c-3.3,2.13-7.7,2.12-11.46.38-10.67-4.92-22.36-11.49-34.03-8.65-4.18,1.01-12.46,4.49-12.22,8.23l6.39-2.58c.92-.37,3.14-.15,3.66.28l-.62,1.97c-.59,1.88,16.01-3.17,21.4,4.76-15.48-1.86-30.48-1.03-45.54,1.88-1.41.27-3.34-.07-4.86-.18,2.73-7.68,4.32-15.12,3.5-23.23-3.09,1.52-4.03,4.75-7.93,4.51-.27-4.29,3.58-5.17,5.42-7.3.15-3.05.52-4.89,1.55-7.77.14-.42.28-.84.45-1.26h139.25c.32.39.61.8.87,1.24.8,1.39,1.24,2.96,1.28,4.57-1.93-.25-2.91-1.46-5.46-1.12,2.69,5.2,7.01,6.96,6.32,15.42v-.02h0Z"/>
  <path fill="#d8b56a" d="M150.12,83.73c-9.72-4.5-13.88-16.18-16.91-26-.51-1.64-1.28-3.5-2.66-4.54-1.66-1.25-4.04-1.25-5.96-.6-1.8.61-3.23,2.34-4.08,4.38-1.77,4.27-3.23,8.37-5.48,12.42-3.26,5.87-7.45,11.46-13.73,14.43-10.73,5.06-23.31,4.75-34.14.42-5.02-2.01-7.99-5.74-9.53-10.76-1.88-6.11-2.9-12.33-4.07-18.65-.55-2.93-1.91-5.31-4.82-6.5l-.56-10.32c25.9-5.03,46.86-2.87,71.79,4.68,5.05,1.53,10.03,1.49,14.99.02,22.85-6.77,43.58-8.22,67.1-3.09l-1.6,9.31c-2.54,1.65-4.2,3.74-4.99,6.71-2.62,9.9-4.91,23.17-13.56,27.55-9.91,5.02-21.72,5.22-31.79.54ZM99.82,80.38c8.83-4.34,13.36-16.89,14.36-26.54.48-4.63-2-8.19-6.26-9.97-11.13-4.64-28.47-5.58-39.86-2.17-4.69,1.4-7.72,4.91-8.33,9.8-1.06,8.57.1,24.6,7.27,28.34,10.1,5.28,22.38,5.67,32.82.54ZM175.93,81.99c5.02-1.4,8.52-4.46,10.5-9.14,3.34-7.88,6.6-22.81.97-28-2.06-1.9-5-2.92-7.83-3.39-10.77-1.79-28.13-1.22-36.68,4.73-6.48,4.51-2.87,21.07,3.75,29.82,2.35,3.1,5.96,5,9.56,6.13,6.51,2.04,13.03,1.71,19.73-.15h0ZM59.6,43.56c-2.45-2.34-6.57-2.29-8.37.18,2.55,1.87,6.36,2.09,8.37-.18ZM198.48,44.73c-1.22-2.06-6.05-2-6.97.16.95,2.09,6.06,1.97,6.97-.16Z"/>
  <path fill="#d8b56a" d="M45.85,48.11l-19.58,3.86c-2.02-4.11-3.87-7.69-6.45-11.75,8.45-1.55,17.03-2.16,25.58-2.04l.45,9.94h0Z"/>
  <path fill="#ffffff" d="M143.21,90.76c4.72.33,5.71,9.19.67,9.83.31-3.72-.31-6.65-.67-9.83Z"/>
</svg>