<svg xmlns="http://www.w3.org/2000/svg" width="1172" height="199" fill="none" xmlns:v="https://vecta.io/nano"><g clip-path="url(#A)"><path d="M1171.39 0H0V198.3H1171.39V0Z" fill="#1c4220"/><g fill="#fff"><path d="M234.44 33.12c-.59 3.23-1.3 6.33-4.88 6.57 1.91 2.81 4.38 5.05 4.35 9.83 3.5-2.9 4.62-13.41.53-16.4zm8.21-10.94c3.19-2 .58-7.78-.55-10.39.35 3.31-.72 8.02.55 10.39zm.54 15.31c1.61-2.6 3.08-9.19 1.1-12-.93 1.47-2.32 2.42-3.29 3.84 2.7 1.67.27 6.67 2.19 8.16zM73.21 3.46C69.83 5 64.14 1.52 62.85 5.64c2.88-.16 7.79.44 7.09 1.09 1.46-1.34 2.82-1.56 3.27-3.27zM86 24.37c-2.13 4.63-10.45 5.91-8.18 13.12 3.89-3.58 7.87-7.07 9.83-12.58-.65-.01-.76-.69-1.65-.54zM68.54 35.85a12.77 12.77 0 0 0-7.61-3.17l1.92 3 2.95.82v-.13c.8-.26 2.84.63 2.74-.52zm-7.09-7.66c3.65-1.67 14.56-1.74 12-6-3.78 2.23-9.39 2.61-12 6zM59.8 14c-2.47.44-6.88-1.05-7.64 1.09 4.71.82 14.1 1.78 15.3-2.74-6.57.57-7.78-4.24-13.12-4.91.04 3.97 3.66 4.35 5.46 6.56zm84.72 184.3h-46c-12-17.71-24-39.56-21.24-66.25 6 22.66 32.29 42.78 52.41 56.85 4.722 3.47 9.677 6.61 14.83 9.4zm74.64-8.87c-1.232 3.153-2.866 6.135-4.86 8.87H187c.33-.2.7-.42 1-.64 4.233-2.587 8.246-5.517 12-8.76 8-7.08 12.76-14.66 16.9-24.06 1.4 5-4 10.35-3.27 14.77 2.46-.81 3.13-3.41 4.39-5.48-.06 10.69-6.63 15.5-11.19 23.53 6.43-1.85 7.86-4.51 12.33-8.23zM213.17 43a3.59 3.59 0 0 0-.005 1.419 3.6 3.6 0 0 0 .545 1.311c1.35-.49 3.15-.49 3.27-2.19-.23-1.26-2.68-.25-3.81-.54zM77.27 173.49l-1.46 1.64v4.57c1.42-2.58 1.83-5.03 1.46-6.21zm143-128.89c-2.28-.11-1.77 2.59-2.73 3.82 2.05-.12 2.94-1.42 2.73-3.82z"/><path d="M234.44 33.12c4.09 3 3 13.5-.53 16.4 0-4.78-2.44-7-4.35-9.83 3.58-.24 4.29-3.34 4.88-6.57zM220.27 44.6c.21 2.4-.68 3.7-2.73 3.82 1-1.23.45-3.93 2.73-3.82zm-7.1-1.6c1.14.34 3.58-.67 3.82.55-.13 1.69-1.93 1.7-3.27 2.18a3.54 3.54 0 0 1-.55-2.73zm-20.74 36.59c3.86.33 4.66 9.18.54 9.82a55.9 55.9 0 0 0-.54-9.82zm-54.27-38.82c.14 1.79-.64 2.63-2.17 2.73-.23-1-1.18-1.36-1.09-2.73h3.26zm-6.54 1.64c.45 1.54-.78 1.42-.55 2.73-.95-.49-1.21-1.71-1.09-3.27.88-.16.94.52 1.64.54zM86 24.37c.89-.15 1 .53 1.66.54-2 5.51-6 9-9.84 12.58C75.55 30.28 83.87 29 86 24.37zM77.27 173.5c.49 1.54-.35 5.26-3.09 8.61a188.68 188.68 0 0 0-12.51 15.79c.72-7 9.93-18.12 15.6-24.4zm-7.33-87.91c-2.34-3.14-5.72-8.06-8.73-8.74a93.91 93.91 0 0 1 4.37 10.38c2.13.13 2.84-1.17 4.36-1.64zm1.32-8.2c.34 7.18 3.84 14 3.26 20.21-3.62.37-3.65-2.86-5.43-4.37-1.25-.13-2 .14-2.18 1.11-2.6-2.46-3.32-6.21-4.91-10.34-4.63-12.19-14.68-23.5-13.1-39.4.91-9.27 10.45-16.33 19.64-8.75.1 1.19-1.94.26-2.71.54-.6 2.06 1.33 1.57 1.08 3.3-4.85-1.77-13.91-4.38-15.28 2.18 4.27 4.82 0 18.16 5.45 21.85 1.12-6.8 1.35-17 7.65-20.23C63 48.16 62.88 52 59.8 54.43c4.45 3.45 5.92-4.33 9.83-4.91 1.81.18.86 3.15 1.09 4.91-8-.19-10.12 11.79-6.53 18 2.81 1.21 4 4.07 7.07 4.93v.03zm2.68 85.35c1.09 9.49-9.9 15.5-13.27 24.15-.31-9.78 7.65-16.67 13.27-24.15zm-.49-140.55c2.56 4.26-8.35 4.33-12 6 2.61-3.39 8.22-3.77 12-6zm-.24-18.73c-.45 1.72-1.81 1.93-3.27 3.27.7-.65-4.21-1.25-7.08-1.09 1.28-4.12 7-.61 10.35-2.18zm-1.95 149.36c.3 5.47-5.88 13-10.51 19.3.77-8.11 5.7-12.08 10.51-19.3zm-1.08-12.03c.24 5-3.75 10.45-6 14.76-.53-5.25 4.16-10 6-14.76zM54.35 7.43c5.33.67 6.54 5.49 13.11 4.91-1.2 4.53-10.59 3.57-15.3 2.74.76-2.14 5.18-.65 7.64-1.09-1.81-2.2-5.42-2.58-5.45-6.56zM229 4.67c2.55-.33 3.53.87 5.46 1.12-.045-1.603-.488-3.171-1.29-4.56a8.33 8.33 0 0 0-.89-1.23H93.16l-.45 1.26a30.79 30.79 0 0 0-1.79 8.92C89.07 12.31 85.71 13 86 17.26c4.34.53 6-4.53 8.2-4.36.34 17.34-4.5 23.47-7.55 32 0 0-.48.45-1.21 1.2l-1.06 1.18-1.09 1.29A2 2 0 0 0 83 49c-.39.48-.81 1-1.21 1.57a7.18 7.18 0 0 0-.25.36l-1 1.48c-.09.14-.2.28-.28.42a23.64 23.64 0 0 0-1.1 1.88l-.25.5c-.3.59-.58 1.2-.84 1.79a2 2 0 0 0-.14.34 19.91 19.91 0 0 0-.72 2.09c0 .17-.09.34-.12.51a12.79 12.79 0 0 0-.39 2.18 9.13 9.13 0 0 0 3.89-2.52c1.54-1.68 2.46-3.75 4.84-5.68a7.5 7.5 0 0 0-.33 1.4c-.42 3 .58 7.16.86 10.07a36.98 36.98 0 0 0-3.07 3.53 21.77 21.77 0 0 0-4.56 10.71C80.09 77.8 82 74.81 83.89 73a5.32 5.32 0 0 1 2.66-1.59 37.32 37.32 0 0 0-.08 5.06c.42 11.56 5.29 21.29 9.34 29.91a6 6 0 0 1-2.77 1c-4.05.37-8.08-3.13-11.41-4.2.75 5.63 7.1 8.57 8.2 12-2.46-.22-3.83-1.56-5.29-2.79a9.74 9.74 0 0 0-2.32-1.6c-1.06 8.59 6.35 11.42 7.08 16.4-2.33-.59-5.79-5.18-7-3.89 0 .05-.08 0-.11.08.17.65.36 1.29.59 1.93.11.23.19.48.3.73l.48 1.12c.17.39.31.64.47 1a7.82 7.82 0 0 0 .37.7c.22.42.42.84.67 1.23 1.71 3 3.66 5.59 4.76 7.5-3.33.22-4.68-4.4-7.08-3.28 7.52 20.06 33.18 40 51.84 53 5.23 3.66 11.33 8.53 17.51 11.05h23.56c3.89-1.68 5.62-4.64 2-9.4-22 1.43-40.26-8.39-55.11-18.05-12.09-7.83-23.11-17.14-28.4-26.24 12 6.55 20.59 16.56 33.85 21.88-.59-3.08-6.35-5.87-6.57-9.32 1.76 1.49 4.73 4 7.1 1.65 14 11.84 50.47 24.48 63.85 2.75.36-2-.7-5.46.56-6.58 1.7 1.76 3.83 3.08 3.83 6.58 3.22-1.68 3-9.12 3.27-12 4.06-.26 3.81 3.83 6.55 4.92.84-1.9.48-5 .56-7.67 1.9-.08 1.76 1.85 3.24 2.21 10.08-14.79 19.67-32.64 16.93-58.49 1.62.25 3.67 5.14 4.36 2.71.65-7.92-3-11.5-4.36-17.49a6 6 0 0 0 4.36 1.12c-.55-4.36-3.27-6.54-5.45-9.31 1.82-1.46 5.79-.76 7.08-2.72.61-3.69-1-5.2-3.28-6-3.07 1.4-11.75 4.92-14.71 1.09 2-1.82 7.55-1.93 6.82-3.75-1.87 1.12-4.44 0-2.71-.53 5.37-1.6 7.58-6.13 11.16-5-1.93-.59-.86-3.49-2.18-4.33-.11 1.67-1.87 2.07-3.22 2.54.2-2-.5-3.61-2.23-3.66-.42 2.68-1.43 4.78-3.28 6-3.58 1-5.87.09-10.35.65-.87.11-1.62-2.66-2.18-3.92-1.74 1.57-5.09 1.48-4.92 4.92 1.79 2 4.64 3 7.63 3.84-.84 1.53-3 1.7-2.21 4.89-2.6 1.43-6.68 1.32-9.79 2.21a6.84 6.84 0 0 0 .45 1.46c.01.039.027.077.05.11 1.38 3.3 4.45 6.15 3.31 9.9a2.35 2.35 0 0 1-1.35-.19c-1.14-.51-1.79-1.77-2.63-2.19-.046-.005-.093-.005-.14 0a.75.75 0 0 0-.44-.06h-.17a1.34 1.34 0 0 0-.7.31 15.57 15.57 0 0 0 .95 2.21 5.67 5.67 0 0 0 .31.59c.28.519.587 1.023.92 1.51.14.22.25.42.42.64.36.53.76 1.06 1.17 1.57a2.16 2.16 0 0 1 .28.36c7.5 8.93 20.9 14.83 22.13 27.56.42 4.62-1 11.81-4.92 13.65-.08-.64.08-1.54-.56-1.65-1.09 4.17-2.8 7.78-6.55 9.32-1.84-4.39 4.37-20-6-17.49 1.45 5.82 3.69 12.82-1.12 16.93-1.024.094-2.056-.071-3-.48-.234-.073-.475-.12-.72-.14a4.16 4.16 0 0 0-1.21 0 17.7 17.7 0 0 0-1.4 2.4c-.7 1.49-1.28 3.11-1.87 4.7-4.09 3.22-9.71 9.27-16.93 9.85-1.76.14-7.8 1.37-7.63-2.74 2.12-1.62 6.88 1.9 7.63-1.62-6.15-1.65-16.84 1.2-19.64-3.81 2.55-1.17 4.82 1.43 7.11-.56-2.29-3.19-6.88-4-10.55-5.82a12.31 12.31 0 0 1-1.31-.75c-.08 0-.14-.08-.22-.11a10.77 10.77 0 0 1-1.24-.95l-.08-.06c-.33-.302-.628-.637-.89-1-.069-.105-.146-.206-.23-.3-.292-.432-.537-.895-.73-1.38.23 0 .45.09.7.14 10 1.79 20.4 5.26 32.26 4 .835-.049 1.666-.142 2.49-.28.34-2.29-3.58-.39-3.27-2.71 1.4-1.18 4.73-.4 6.1-1.57.201-.171.352-.392.44-.64-9.31 1.53-16.81-1-23.27-2l-1.29-.2c-2.21-.28-5 .23-7.47 0H157c-7-.72-12.9-3.24-17.68-3.61-2.88-.22-5.37.34-7.44 2.52-1.46 1.29 1.45 1.46 0 2.72a7.5 7.5 0 0 1-3.56.53c-3.91-.56-3.1-6.24-5.73-9.24 3.69.2 6.91-3.74 10.38-3.3-.024.456-.204.89-.51 1.23-.81 1.1-2.4 2-2.57 3-.06.39.14.76.73 1.15.051.053.108.1.17.14.082-.06.179-.098.28-.11 1.67-.7 2.74-2 4.67-2.49.013.006.026.009.04.009a.09.09 0 0 0 .04-.009c.14 0 .28 0 .42-.06.185-.034.372-.051.56-.05 9.32 1.53 19.67 2 29.68 2.43s19.76.73 27.87 1.82c.28.05.56.08.84.11a.56.56 0 0 0 .14-.28c0-.08.17-.2.17-.31.002-.546-.178-1.077-.51-1.51a5.23 5.23 0 0 1-.86-1.9c-.049-.269-.029-.546.059-.805s.239-.491.441-.675c2.1-.93 3.61 3.13 3.83.56a6.14 6.14 0 0 0-.56-1.43c-1.56-3-5.15-4.09-7.08-6.77-.19-.64 0-1 .26-1.18.21-.155.448-.267.7-.33.3-.14.61-.31.67-.7-.451-.778-1.053-1.458-1.77-2-4.72-3.66-14.24-2.52-17.87-7.27 9.4-1.71 17.2-4.14 15.83-15.86-.59-4.87-1.93-9.27-1.65-15.84.014-.15.014-.3 0-.45 0-.86.06-1.7.06-2.57a72.73 72.73 0 0 0-2.27-18.33c2.55-2.91 3.52-7.41 6-10.35 3.14.95 1.66 5.21 3.28 6.55 9.12-1.82 14.74-7.64 22.91-8.76 9-1.2 17.09.42 17.46-8.17.73 0 .78.67 1.65.53.74-8.78-4.41-11.46-7.08-16.64zM128.35 104.75c2.21-8 11.47-11.87 16.93-14.78-3.47 7.08-11.28 9.82-16.93 14.78zm2.71-47.59c3.22-.14 9.24.14 13.1-.95l.56.08c-.06 4.81-5.12 4.59-9.26 5.23-.4-1.45 1.12-1 1.62-1.62-1.51-1.4-5.4-.42-6.02-2.74zm25.1 36.06c-3.13-1.76-3.5-6.3-3.81-10.91-6.23 3.22-10.52 8.42-18 10.38 4.42-8.31 13.23-12.23 22.35-15.84-2.49 4.81-2.46 10.61 1.09 14.21 2.91-3.3 12.14-4.11 13.12 1.63-5.24.08-9.27-2.8-14.75.53zm14.77 20.23c-1.15-1.88-4.62-3.92-2.74-7.11 3.08 1.65 5.09 4.39 8.17 6-.25 1.95-3.55.85-5.43 1.11zm4.9-8.7c-1.46 3.49-4.65.19-6-1.12 2.08-1.88 3.79 1.28 6 1.12zM166 37.49c.53 2.38 3.38 2.46 3.83 4.92-5.74 5.37-8.25 18.61-20.76 13.66.7-2.21 2.83-3 3.27-5.46-.33-3.83-4.25-1.68-6.54-2.74-.25-2.66 2.32-2.41 2.18-4.93-.78-1.62-1.2-.44-3.25-1.06-1.17 1.74-1.53 4.31-2.74 6H130a17.33 17.33 0 0 1-2.71-4.37c-2.52.37-3.08 1.85-2.18 4.37-3.7.08-4.84-.76-6.55 1.09 1.32-4.87 6.66-5.71 8.73-9.85-6.13.65-8.25 5.23-13.09 7.14 4-8.87 14.07-11.78 27.27-11.47-3.83-6.92-13.51-4.56-21.82-4.93-.45-1.57.76-1.43.56-2.74-5.06-.7-6.69 2.07-10.38 2.74.67-4 5.12-5.37 7.64-6.57 11-5.24 21.49-1.12 31.11 3.27 8.2 3.78 14.16 7.83 20.73 2.21 0 .78-.08 1.54.56 1.62 2.55 0 3.38-3.66 5.46-1.09-1.85 4.02-6.33 5.36-9.33 8.19z"/><path d="M136 43.5c1.53-.1 2.32-.94 2.17-2.73h-3.27c-.09 1.37.87 1.7 1.1 2.73zm-6-1.63c-.12 1.56.13 2.78 1.08 3.27-.22-1.31 1-1.18.55-2.73-.71-.02-.77-.7-1.63-.54zm239.65 13.07c-8.87-6.38-18.85-9.1-33.4-9.1h-50.76v7.64h10.84v81.13h-10.84v7.67h50.16c14.51 0 25.17-2.75 33.55-8.66 13.37-9.52 20.44-23.09 20.44-39.25 0-16.45-6.92-30.09-19.99-39.43zm-11.18 38.25v6.89c0 15.4-.82 23.28-5.7 29.24-3.7 4.49-8.62 5.29-17.58 5.29h-10.88V53.48h10.88c10.6 0 15.64 1.12 19.38 8.07 3.52 6.58 3.9 15.1 3.9 31.64zm95.96 34.26V97.33c0-7.09-.34-11.6-7-15-4.33-2.24-11.18-3.47-19.31-3.47-18.74 0-28.38 7.17-28.38 16.55 0 6 3.51 9.63 9.39 9.63 6.57 0 10.5-3.49 10.5-9.34a11 11 0 0 0-1.88-5.93 6.17 6.17 0 0 1-.57-1.11c0-1.1 3.13-2.86 7-2.86 7.93 0 8.64 1.71 8.64 6.62v12.79c-23.54.35-38.11 8.89-38.11 22.4 0 10.33 6.34 16.25 17.38 16.25 9.57 0 16.29-2.69 22.21-8.92 1.282 2.719 3.324 5.008 5.88 6.591a15.56 15.56 0 0 0 8.52 2.329c10.71 0 11.23-7.37 11.23-7.44l.11-1.61h-1.62c-2.51-.03-3.99-3.76-3.99-7.36zm-21.64-15.19v11.12c0 5.46-3.4 9.13-8.46 9.13-4.31 0-6.81-1.69-6.81-10.35 0-7.4 3.78-9.9 15-9.9h.27zm233.85-58.83h6.12v-7.59h-36.24l-17.19 48.87-16.18-48.87h-42.71v7.59h10.78v75.27c0 2.69-.76 5.91-4.4 5.91h-6.38v7.66h31.44v-7.66H585c-4.34 0-5.59-1.43-5.59-6.36V61.83l26 80.45h7.32l26.75-80.73v73.07h-12.27v7.65h45.55v-7.66h-6.12V53.43zM1012 155.81l6.38-14.86-27.06-53.14h-6.92v-7.6h38.06v7.6H1017l12.36 26.52 9.85-22.6c.5-.823.78-1.766.79-2.73 0-.88-1.39-1.19-2.57-1.19h-6.16v-7.6h25.53v7.64h-5.59c-1.34 0-2.55.27-3.92 3.59l-28.73 67.25c-4.88 11.31-12 16.5-18.57 16.5-6.37 0-10.32-3.69-10.32-9.63a9.4 9.4 0 0 1 .749-3.639c.489-1.151 1.203-2.193 2.1-3.064a9.39 9.39 0 0 1 6.781-2.657 9.04 9.04 0 0 1 4.16.886c1.29.623 2.42 1.547 3.28 2.694.39.43.92 1 1.13 1 .03-.01 1.31 1.37 4.13-4.97zm87.84-58.06l-3.74-.48c-10.57-1.31-14-2-14-5.25s4.58-6.59 12.24-6.59c7.5 0 12.71 2.24 15.49 10.73l.34 1h6.59l-.53-17.68h-5.06l-2.82 2.42a33.79 33.79 0 0 0-14.17-3.18c-13.86 0-22.82 8.87-22.82 22.59s8.92 17.85 22.31 19.83c2.12.32 4.09.57 5.92.79 9.59 1.2 11.83 1.88 11.83 5.84 0 4.56-4.41 9.17-12.85 9.17-10.08 0-16.86-4.14-20.14-16.37l-.3-1.12h-6.64l.19 22.77h5.64l3.77-2.93c4.48 3 10.36 4.57 17 4.57 15.12 0 24.51-9.21 24.51-24 .06-13.86-6.33-20.03-22.76-22.11zm-22.71-23.95c1-6.28-2.52-10.7-9.52-11.13-2.36-.14-5.65.28-7.53 2.08a6.58 6.58 0 0 0-1.62 2.112c-.4.806-.62 1.683-.67 2.578-.07.892.05 1.788.33 2.636a6.67 6.67 0 0 0 1.32 2.304 5.86 5.86 0 0 0 1.89 1.386 5.93 5.93 0 0 0 2.28.544c2.8.09 5-1 5.69-2 .46 4.63-7.2 5.85-7.2 5.85v7.64s12.23-.21 15.03-14zm-96.71 25.6c0-12.87-3.09-20.32-18.9-20.32-9.69 0-16.92 3.61-22.52 11.32V46.72h-32.33V53h8.43v81.64h-6.18v7.66h36.3v-7.66H939v-26.37c0-11.09 7.15-19.7 13.31-19.7 3 0 4.67 1 4.67 6.3v39.74h-6.22v7.66h36v-7.66h-6.29l-.05-35.21zM539.2 134.61v-32.76C539.2 88 537.89 79 520.28 79c-9.68 0-16.91 3.62-22.51 11.33V80.19h-30c-.34 0 .34 0 0 0v7.61H474v46.8h-6.21v7.65h36.34v-7.65h-6.24v-26.43c0-11 7.19-19.85 13.14-19.85 2.83 0 4.71 1.1 4.71 6.47v39.82h-6.12v7.65h35.78v-7.65h-6.2zm210.709-54.42h-30v7.61H726v26.33c0 9-6.061 20-13.151 20-2.81 0-4.68-1.1-4.68-6.46V80.19H677.52h1.089v7.58h6.131v37.33c0 4.77.2 9 2.75 12.41 3.28 4.1 8.86 6.27 16.14 6.27 9.59 0 16.81-3.71 22.52-11.63v10.11h30v-7.66h-6.2l-.041-54.41zm127.661-1.8c-7.41 0-13.28 2.64-17.86 8.06v-6.26h-31.33v7.24h7.46v79.85h-8.47v7.54h43.24v-7.54h-10.9v-31.51c4.54 5.31 10.41 7.9 17.86 7.9 16.72 0 29.33-14 29.33-32.47 0-19.01-12.33-32.81-29.33-32.81zm3.31 48.31c0 7.73-1.24 9.74-6 9.74-9.2 0-15.14-7.72-15.14-19.68v-11.28c0-12 5.94-19.69 15.14-19.69 5.07 0 6 1.57 6 9.89v31.02zM822.33 88l-.22-.56c-2-4.38-6.55-7.31-12.14-7.31A20.35 20.35 0 0 0 792.75 90v-9.81h-29.61v7.62h6.17v46.8H763v7.65h36.4v-7.65h-6.19v-25c0-11.07 7.78-19.56 10.22-20.77l-.17.31a7.66 7.66 0 0 0-1.19 4 10.13 10.13 0 0 0 .681 3.953c.487 1.259 1.222 2.408 2.16 3.38a10.14 10.14 0 0 0 7.229 3.097 10.71 10.71 0 0 0 4.283-.765 10.7 10.7 0 0 0 3.625-2.406 10.71 10.71 0 0 0 2.37-3.649 10.73 10.73 0 0 0 .722-4.29 12.13 12.13 0 0 0-.81-4.47z"/></g></g><defs><clipPath id="A"><path fill="#fff" d="M0 0h1171.39v198.3H0z"/></clipPath></defs></svg>