<svg width="464" height="382" viewBox="0 0 464 382" fill="none" xmlns="http://www.w3.org/2000/svg">
<g clip-path="url(#clip0_27856_422)">
<path d="M400 63.74C398.87 69.96 397.49 75.93 390.6 76.38C394.28 81.8 399.03 86.12 398.97 95.31C405.72 89.73 407.87 69.49 400 63.74Z" fill="white"/>
<path d="M415.8 42.7C421.94 38.78 416.92 27.7 414.73 22.7C415.41 29.05 413.36 38.12 415.8 42.7Z" fill="white"/>
<path d="M416.84 72.16C419.93 67.16 422.76 54.46 418.95 49.01C417.17 51.83 414.48 53.65 412.62 56.39C417.83 59.71 413.14 69.22 416.84 72.16Z" fill="white"/>
<path d="M89.68 6.65991C83.18 9.65991 72.22 2.91991 69.75 10.8499C75.29 10.5399 84.75 11.7099 83.38 12.9499C86.19 10.3699 88.81 9.99991 89.68 6.65991Z" fill="white"/>
<path d="M114.3 46.9001C110.2 55.7501 94.1903 58.2901 98.5403 72.1601C106.04 65.2701 113.69 58.5501 117.48 47.9401C116.12 47.9201 116 46.6201 114.3 46.9001Z" fill="white"/>
<path d="M80.6898 68.9999C75.6898 64.9099 70.6898 63.0999 66.0498 62.9099L69.7498 68.6999L75.4198 70.2899C75.4198 70.1999 75.4198 70.1399 75.4198 70.0399C76.9998 69.4899 80.8798 71.2999 80.6898 68.9999Z" fill="white"/>
<path d="M67 54.2599C74 51.0399 95 50.91 90.1 42.7C82.87 47 72.06 47.7199 67 54.2599Z" fill="white"/>
<path d="M63.8802 26.93C59.1202 27.77 50.6302 24.93 49.1602 29.03C58.2402 30.6101 76.3102 32.45 78.6102 23.76C65.9602 24.86 63.6102 15.6 53.3602 14.3C53.4402 22 60.3902 22.7 63.8802 26.93Z" fill="white"/>
<path d="M226.93 381.66H138.35C115.2 347.58 92.1501 305.52 97.4801 254.16C109.11 297.77 159.62 336.49 198.34 363.57C208.62 370.73 217.4 376.82 226.93 381.66Z" fill="white"/>
<path d="M370.59 364.59C368.218 370.661 365.068 376.399 361.22 381.66H308.72C309.37 381.29 310.07 380.86 310.72 380.43C318.883 375.45 326.625 369.812 333.87 363.57C349.27 349.95 358.42 335.36 366.39 317.26C369.08 326.85 358.64 337.19 360.09 345.69C364.83 344.13 366.09 339.13 368.55 335.14C368.44 355.71 355.78 364.97 347.01 380.43C359.23 376.87 362 371.76 370.59 364.59Z" fill="white"/>
<path d="M359.05 82.6601C358.865 83.5625 358.862 84.4929 359.043 85.3963C359.223 86.2997 359.582 87.1578 360.1 87.9201C362.69 86.9801 366.17 86.9201 366.4 83.7101C365.94 81.3801 361.23 83.3101 359.05 82.6601Z" fill="white"/>
<path d="M97.4897 333.92C96.5997 334.92 95.6497 335.97 94.6797 337.08V345.86C97.4197 340.89 98.2097 336.18 97.4897 333.92Z" fill="white"/>
<path d="M372.73 85.8399C368.33 85.6299 369.31 90.8399 367.46 93.1899C371.41 92.9999 373.12 90.4499 372.73 85.8399Z" fill="white"/>
<path d="M400 63.74C407.87 69.49 405.72 89.74 399 95.31C399.06 86.12 394.31 81.8 390.63 76.38C397.52 75.92 398.9 69.96 400.03 63.74H400Z" fill="white"/>
<path d="M372.73 85.8399C373.12 90.4499 371.41 92.9599 367.46 93.1899C369.31 90.8199 368.33 85.6299 372.73 85.8399Z" fill="white"/>
<path d="M359.06 82.6601C361.24 83.3201 365.94 81.3801 366.41 83.6601C366.17 86.9301 362.7 86.9401 360.12 87.8701C359.594 87.1118 359.229 86.2541 359.047 85.3496C358.864 84.445 358.869 83.5128 359.06 82.6101V82.6601Z" fill="white"/>
<path d="M319.13 153.18C326.57 153.82 328.13 170.85 320.18 172.09C320.67 164.94 319.69 159.3 319.13 153.18Z" fill="white"/>
<path d="M214.7 78.48C214.97 81.91 213.46 83.48 210.52 83.72C210.07 81.72 208.24 81.11 208.41 78.48H214.7Z" fill="white"/>
<path d="M202.1 81.6201C202.96 84.6201 200.6 84.3601 201.1 86.8801C199.25 85.9401 198.77 83.5901 198.99 80.5801C200.69 80.2801 200.81 81.5801 202.15 81.5801L202.1 81.6201Z" fill="white"/>
<path d="M114.3 46.9099C116.01 46.6199 116.12 47.9099 117.48 47.9099C113.69 58.5599 106 65.2799 98.5403 72.1699C94.1903 58.2899 110.2 55.7599 114.3 46.9099Z" fill="white"/>
<path d="M97.4897 333.93C98.4297 336.93 96.8197 344.05 91.5397 350.5C87.8797 354.99 78.8297 364.64 67.4697 380.89C68.8497 367.41 86.5797 346.02 97.4697 333.89L97.4897 333.93Z" fill="white"/>
<path d="M83.3902 164.72C78.8802 158.72 72.3902 149.22 66.5902 147.91C69.7841 154.406 72.5923 161.084 75.0002 167.91C79.1002 168.16 80.4502 165.66 83.3902 164.74V164.72ZM85.9302 149C86.5702 162.81 93.3202 175.9 92.2102 187.88C85.2102 188.61 85.2102 182.38 81.7502 179.48C79.3402 179.23 77.8202 179.74 77.5502 181.62C72.5502 176.87 71.1602 169.62 68.1002 161.62C59.1902 138.23 39.8502 116.46 42.8902 85.86C44.6502 68 63.0002 54.41 80.7002 69C80.8802 71.3 76.9502 69.49 75.4702 70C74.3302 74 78.0402 73 77.5502 76.34C68.2202 73 50.8502 68 48.1402 80.58C56.3702 89.87 48.2102 115.58 58.6302 122.65C60.7902 109.55 61.2302 89.87 73.3602 83.71C70.0802 92.71 69.7902 100.09 63.8802 104.77C72.4302 111.4 75.2602 96.43 82.7802 95.31C86.2802 95.66 84.4402 101.37 84.9002 104.77C69.4802 104.39 65.4102 127.46 72.3102 139.46C77.7202 141.79 79.9302 147.3 85.9302 148.96V149Z" fill="white"/>
<path d="M91.08 313.23C93.18 331.48 72.08 343.05 65.54 359.7C64.95 340.89 80.26 327.62 91.08 313.23Z" fill="white"/>
<path d="M90.14 42.71C95.07 50.91 74.07 51 67 54.26C72 47.72 82.83 47.01 90.1 42.71H90.14Z" fill="white"/>
<path d="M89.68 6.65991C88.81 9.96991 86.19 10.3699 83.38 12.9499C84.74 11.7099 75.29 10.5399 69.75 10.8499C72.22 2.91991 83.19 9.68991 89.68 6.65991Z" fill="white"/>
<path d="M85.9304 294.13C86.5104 304.66 74.6004 319.13 65.6904 331.27C67.1804 315.67 76.6904 308.02 85.9304 294.13Z" fill="white"/>
<path d="M83.8605 271C84.3105 280.6 76.6305 291.11 72.3105 299.41C71.3105 289.3 80.3105 280.1 83.8605 271Z" fill="white"/>
<path d="M53.3702 14.3C63.6402 15.6 66.0002 24.87 78.6202 23.76C76.3102 32.46 58.2402 30.62 49.1602 29.03C50.6402 24.91 59.1602 27.77 63.8802 26.93C60.3902 22.7 53.4502 22 53.3702 14.3Z" fill="white"/>
<path d="M389.49 9C394.39 8.36 396.28 10.67 399.99 11.16C399.911 8.07319 399.062 5.05499 397.52 2.38C397.029 1.54258 396.47 0.746602 395.85 0L128.07 0C127.74 0.81 127.48 1.62 127.21 2.42C125.217 7.94482 124.055 13.7344 123.76 19.6C120.21 23.69 113.76 24.98 114.28 33.22C122.63 34.22 125.86 24.5 130.06 24.82C130.71 58.21 121.39 70 115.52 86.48C115.52 86.48 114.61 87.34 113.21 88.79C112.61 89.44 111.91 90.19 111.21 91.05C111.21 91.11 111.21 91.11 111.21 91.16C110.56 91.92 109.86 92.78 109.11 93.64C108.944 93.8193 108.8 94.0173 108.68 94.23C107.92 95.15 107.11 96.17 106.36 97.23C106.186 97.4535 106.025 97.6873 105.88 97.93C105.23 98.84 104.58 99.81 103.94 100.78C103.78 101.05 103.56 101.32 103.4 101.59C102.64 102.77 101.94 103.96 101.3 105.2L100.81 106.2C100.22 107.33 99.6796 108.51 99.1996 109.64C99.0844 109.845 98.9938 110.063 98.9296 110.29C98.3916 111.597 97.9243 112.933 97.5296 114.29C97.4796 114.61 97.3696 114.93 97.3096 115.29C96.9341 116.665 96.6831 118.07 96.5596 119.49C99.4257 118.538 102.001 116.868 104.04 114.64C107.04 111.41 108.78 107.42 113.36 103.71C113.067 104.587 112.849 105.486 112.71 106.4C111.91 112.27 113.84 120.19 114.38 125.79C112.265 127.923 110.288 130.187 108.46 132.57C103.724 138.524 100.689 145.65 99.6796 153.19C103.02 149.75 106.68 143.99 110.34 140.43C111.705 138.922 113.487 137.854 115.46 137.36C115.193 140.603 115.139 143.86 115.3 147.11C116.11 169.35 125.48 188.11 133.3 204.67C131.699 205.707 129.869 206.335 127.97 206.5C120.16 207.2 112.41 200.5 105.97 198.42C107.43 209.25 119.65 214.9 121.75 221.58C117.01 221.15 114.37 218.58 111.57 216.19C110.233 214.96 108.728 213.926 107.1 213.12C105.1 229.66 119.32 235.12 120.72 244.68C116.25 243.55 109.58 234.68 107.32 237.19C107.26 237.3 107.15 237.25 107.1 237.36C107.42 238.59 107.8 239.83 108.23 241.07C108.45 241.5 108.61 241.99 108.82 242.47C109.09 243.17 109.42 243.87 109.74 244.62C110.01 245.22 110.33 245.86 110.65 246.51C110.855 246.974 111.089 247.425 111.35 247.86C111.78 248.66 112.16 249.47 112.65 250.22C115.93 255.93 119.65 260.99 121.8 264.66C115.39 265.09 112.8 256.2 108.18 258.36C122.66 296.96 172.04 335.25 207.95 360.36C218.02 367.42 229.76 376.79 241.66 381.63H287C294.49 378.4 297.82 372.7 290.93 363.54C248.55 366.29 213.45 347.39 184.85 328.81C161.59 313.73 140.38 295.81 130.2 278.3C153.35 290.9 169.83 310.18 195.35 320.41C194.22 314.49 183.13 309.1 182.7 302.48C186.09 305.33 191.8 310.23 196.38 305.66C223.38 328.43 293.52 352.77 319.26 310.93C319.96 307.06 317.91 300.43 320.33 298.28C323.62 301.67 327.71 304.2 327.71 310.93C333.9 307.7 333.42 293.38 334.01 287.78C341.82 287.29 341.33 295.16 346.61 297.26C348.22 293.59 347.52 287.67 347.69 282.5C351.35 282.34 351.08 286.06 353.93 286.76C373.32 258.27 391.79 223.92 386.51 174.16C389.63 174.65 393.56 184.07 394.91 179.39C396.15 164.15 389.04 157.26 386.51 145.73C388.82 146.97 390.82 148.48 394.91 147.89C393.83 139.49 388.61 135.29 384.41 129.96C387.91 127.16 395.56 128.5 398.03 124.73C399.22 117.62 396.15 114.73 391.73 113.16C385.81 115.85 369.12 122.63 363.41 115.26C367.23 111.76 377.95 111.54 376.55 108.04C372.94 110.19 367.99 108.04 371.32 107.04C381.66 103.97 385.92 95.24 392.81 97.34C389 96.22 391 90.62 388.47 89C388.25 92.23 384.86 93 382.28 93.9C382.65 89.97 381.28 86.9 377.97 86.84C377.16 92.01 375.22 96.05 371.67 98.42C364.78 100.42 360.36 98.58 351.75 99.66C350.08 99.88 348.62 94.54 347.55 92.12C344.21 95.12 337.75 94.97 338.07 101.6C341.52 105.53 347.01 107.36 352.77 108.98C351.15 111.98 346.95 112.26 348.52 118.4C343.52 121.14 335.65 120.93 329.67 122.65C329.853 123.612 330.142 124.551 330.53 125.45C330.541 125.534 330.58 125.611 330.64 125.67C333.28 132.02 339.2 137.51 336.99 144.73C336.111 144.866 335.212 144.734 334.41 144.35C332.2 143.35 330.96 140.96 329.35 140.15C329.265 140.102 329.174 140.065 329.08 140.04C328.807 139.929 328.51 139.894 328.22 139.94C328.11 139.94 328 139.88 327.89 139.94C327.395 140.003 326.93 140.208 326.55 140.53C327.046 141.993 327.658 143.414 328.38 144.78C328.55 145.17 328.748 145.547 328.97 145.91C329.509 146.912 330.103 147.883 330.75 148.82C331.02 149.25 331.23 149.63 331.55 150.06C332.25 151.06 333.01 152.11 333.82 153.06C334.014 153.279 334.191 153.513 334.35 153.76C348.78 170.93 374.58 182.29 376.95 206.76C377.75 215.65 375.01 229.49 367.47 233.04C367.31 231.8 367.63 230.04 366.39 229.86C364.29 237.86 361.01 244.86 353.79 247.8C350.24 239.34 362.19 209.4 342.27 214.14C345.07 225.34 349.38 238.8 340.12 246.72C337.58 247.1 336.18 246.29 334.41 245.8V245.86C333.956 245.713 333.486 245.622 333.01 245.59C332.24 245.482 331.459 245.482 330.69 245.59C329.67 247.059 328.771 248.607 328 250.22C326.65 253.08 325.52 256.22 324.39 259.22C316.53 265.41 305.71 277.04 291.82 278.17C288.42 278.44 276.82 280.81 277.12 272.9C281.21 269.77 290.36 276.56 291.82 269.77C279.97 266.6 259.4 272.09 254.01 262.45C258.91 260.19 263.28 265.2 267.69 261.37C263.28 255.23 254.45 253.62 247.39 250.17C246.516 249.742 245.671 249.257 244.86 248.72C244.7 248.66 244.59 248.56 244.43 248.5C243.591 247.956 242.798 247.344 242.06 246.67C242 246.67 241.95 246.62 241.9 246.56C241.266 245.97 240.687 245.324 240.17 244.63C240.038 244.422 239.895 244.221 239.74 244.03C239.179 243.207 238.709 242.325 238.34 241.4C238.77 241.45 239.2 241.56 239.69 241.66C258.91 245.11 278.94 251.79 301.77 249.26C303.39 249.1 304.95 249.04 306.57 248.72C307.21 244.3 299.67 247.96 300.27 243.5C302.96 241.23 309.37 242.74 312 240.5C312.395 240.171 312.695 239.743 312.87 239.26C294.93 242.26 280.5 237.38 268.07 235.44C267.26 235.33 266.4 235.17 265.59 235.06C261.33 234.52 256 235.49 251.21 235.06H250.94C237.48 233.66 226.12 228.82 216.94 228.12C211.39 227.68 206.6 228.76 202.62 232.96C199.82 235.44 205.42 235.76 202.62 238.18C200.456 239.068 198.107 239.411 195.78 239.18C188.24 238.1 189.78 227.18 184.78 221.41C191.89 221.79 198.08 214.19 204.78 215.05C204.732 215.932 204.378 216.77 203.78 217.42C202.22 219.52 199.15 221.35 198.78 223.13C198.68 223.89 199.05 224.59 200.18 225.34C200.279 225.442 200.39 225.533 200.51 225.61C200.675 225.505 200.858 225.431 201.05 225.39C204.28 224.05 206.32 221.52 210.05 220.6C210.078 220.604 210.107 220.601 210.135 220.593C210.163 220.584 210.188 220.569 210.21 220.55C210.48 220.49 210.75 220.49 211.02 220.44C211.372 220.368 211.73 220.331 212.09 220.33C230.03 223.33 249.95 224.26 269.23 225.02C288.51 225.78 307.23 226.42 322.86 228.52C323.4 228.62 323.93 228.68 324.47 228.73C324.613 228.582 324.707 228.394 324.74 228.19C324.85 228.03 325.06 227.82 325.06 227.6C325.065 226.545 324.712 225.519 324.06 224.69C323.264 223.594 322.696 222.349 322.39 221.03C322.304 220.509 322.351 219.975 322.526 219.477C322.7 218.979 322.997 218.533 323.39 218.18C327.39 216.4 330.33 224.18 330.76 219.25C330.509 218.299 330.15 217.379 329.69 216.51C326.69 210.64 319.78 208.65 316.06 203.51C315.69 202.27 316.01 201.62 316.55 201.25C316.948 200.945 317.404 200.724 317.89 200.6C318.49 200.33 319.08 200.01 319.19 199.25C318.32 197.764 317.165 196.466 315.79 195.43C306.69 188.43 288.38 190.58 281.38 181.43C299.48 178.15 314.5 173.43 311.86 150.9C310.73 141.53 308.15 133.08 308.69 120.42C308.73 120.135 308.746 119.848 308.74 119.56C308.79 117.89 308.85 116.28 308.85 114.56C308.85 100.56 306.69 86.99 304.48 79.29C309.39 73.69 311.27 65.02 316.06 59.36C322.06 61.19 319.24 69.36 322.36 71.96C339.92 68.46 350.74 57.26 366.46 55.11C383.8 52.79 399.36 55.92 400.06 39.39C401.46 39.39 401.57 40.68 403.24 40.39C404.57 24.12 394.66 19 389.49 9ZM195.81 201.6C200.06 186.2 217.88 178.77 228.38 173.17C221.71 186.79 206.58 192.07 195.81 201.6ZM201 110C207.19 109.73 218.77 110.27 226.2 108.17L227.28 108.33C227.17 117.59 217.42 117.16 209.45 118.4C208.7 115.6 211.61 116.4 212.58 115.28C209.7 112.59 202.21 114.48 201 110ZM249.3 179.41C243.3 176.01 242.57 167.29 241.98 158.41C229.98 164.6 221.73 174.61 207.35 178.41C215.86 162.41 232.82 154.88 250.35 147.94C245.55 157.2 245.61 168.34 252.45 175.29C258.05 168.94 275.82 167.37 277.7 178.41C267.64 178.55 259.88 173 249.33 179.42L249.3 179.41ZM277.73 218.34C275.52 214.73 268.85 210.8 272.45 204.66C278.38 207.84 282.25 213.11 288.18 216.29C287.72 220 281.37 217.86 277.76 218.35L277.73 218.34ZM287.15 201.59C284.35 208.32 278.22 201.97 275.63 199.44C279.65 195.84 282.93 201.92 287.18 201.6L287.15 201.59ZM268.28 72.15C269.28 76.73 274.8 76.89 275.66 81.63C264.66 91.97 259.78 117.44 235.66 107.91C237 103.65 241.1 102.15 241.96 97.41C241.31 90.03 233.77 94.18 229.36 92.13C228.87 87.02 233.83 87.5 233.56 82.65C232.05 79.53 231.24 81.79 227.31 80.65C225.05 83.99 224.31 88.94 222.03 92.17H198.93C196.777 89.6488 195.017 86.8169 193.71 83.77C188.86 84.47 187.78 87.32 189.51 92.17C182.4 92.33 180.19 90.72 176.91 94.27C179.44 84.9 189.72 83.27 193.71 75.27C181.91 76.51 177.82 85.34 168.51 89C176.31 71.93 195.59 66.33 221.01 66.92C213.63 53.62 195.01 58.14 179.01 57.44C178.15 54.44 180.46 54.7 180.08 52.17C170.34 50.82 167.21 56.17 160.08 57.44C161.37 49.74 169.93 47.11 174.78 44.79C195.99 34.72 216.13 42.64 234.65 51.09C250.43 58.36 261.9 66.17 274.55 55.34C274.5 56.85 274.39 58.34 275.63 58.47C280.53 58.47 282.15 51.41 286.13 56.37C282.66 64.13 274.05 66.72 268.28 72.15Z" fill="white"/>
<path d="M210.52 83.72C213.46 83.54 214.98 81.91 214.7 78.48H208.42C208.24 81.11 210.08 81.73 210.52 83.72Z" fill="white"/>
<path d="M199 80.59C198.78 83.59 199.25 85.94 201.1 86.89C200.66 84.37 203.02 84.6 202.1 81.63C200.76 81.58 200.64 80.28 199 80.59Z" fill="white"/>
</g>

</svg>
